<svg width="36" height="36" viewBox="0 0 36 36" fill="none" xmlns="http://www.w3.org/2000/svg">
<g filter="url(#filter0_d_37_3052)">
<circle cx="18" cy="18" r="15.5" stroke="#333333" shape-rendering="crispEdges"/>
</g>
<path d="M20.528 13.5327C20.8222 13.2411 20.8243 12.7662 20.5327 12.472C20.2411 12.1778 19.7662 12.1757 19.472 12.4673L17.6773 14.2461C17.0013 14.916 16.4489 15.4636 16.0571 15.9515C15.6496 16.4588 15.3547 16.9737 15.2759 17.5918C15.2414 17.8629 15.2414 18.1371 15.2759 18.4082C15.3547 19.0263 15.6496 19.5412 16.0571 20.0485C16.4489 20.5364 17.0013 21.084 17.6773 21.7539L19.472 23.5327C19.7662 23.8243 20.2411 23.8222 20.5327 23.528C20.8243 23.2338 20.8222 22.7589 20.528 22.4673L18.765 20.72C18.0495 20.0109 17.5587 19.5228 17.2266 19.1093C16.904 18.7076 16.7933 18.4496 16.7639 18.2185C16.7454 18.0734 16.7454 17.9266 16.7639 17.7815C16.7933 17.5504 16.904 17.2924 17.2266 16.8907C17.5587 16.4772 18.0495 15.9891 18.765 15.28L20.528 13.5327Z" fill="#DDDDDD"/>
<defs>
<filter id="filter0_d_37_3052" x="0" y="0" width="36" height="36" filterUnits="userSpaceOnUse" color-interpolation-filters="sRGB">
<feFlood flood-opacity="0" result="BackgroundImageFix"/>
<feColorMatrix in="SourceAlpha" type="matrix" values="0 0 0 0 0 0 0 0 0 0 0 0 0 0 0 0 0 0 127 0" result="hardAlpha"/>
<feOffset/>
<feGaussianBlur stdDeviation="1"/>
<feComposite in2="hardAlpha" operator="out"/>
<feColorMatrix type="matrix" values="0 0 0 0 1 0 0 0 0 1 0 0 0 0 1 0 0 0 0.2 0"/>
<feBlend mode="normal" in2="BackgroundImageFix" result="effect1_dropShadow_37_3052"/>
<feBlend mode="normal" in="SourceGraphic" in2="effect1_dropShadow_37_3052" result="shape"/>
</filter>
</defs>
</svg>
