<svg width="32" height="32" viewBox="0 0 32 32" fill="none" xmlns="http://www.w3.org/2000/svg">
<path d="M16 28.8666C15.5866 28.8666 15.1866 28.8133 14.8533 28.6933C9.75996 26.9466 1.66663 20.7466 1.66663 11.5866C1.66663 6.91997 5.43996 3.1333 10.08 3.1333C12.3333 3.1333 14.44 4.0133 16 5.58663C17.56 4.0133 19.6666 3.1333 21.92 3.1333C26.56 3.1333 30.3333 6.9333 30.3333 11.5866C30.3333 20.76 22.24 26.9466 17.1466 28.6933C16.8133 28.8133 16.4133 28.8666 16 28.8666ZM10.08 5.1333C6.54663 5.1333 3.66663 8.02663 3.66663 11.5866C3.66663 20.6933 12.4266 25.76 15.5066 26.8133C15.7466 26.8933 16.2666 26.8933 16.5066 26.8133C19.5733 25.76 28.3466 20.7066 28.3466 11.5866C28.3466 8.02663 25.4666 5.1333 21.9333 5.1333C19.9066 5.1333 18.0266 6.07997 16.8133 7.71997C16.44 8.22663 15.5866 8.22663 15.2133 7.71997C13.9733 6.06663 12.1066 5.1333 10.08 5.1333Z" fill="#1ED760"/>
<path d="M20.5 4.5L16.5 7L14.5 5.5L12.5 4.5L10 4L8 4.5L6 5L4.5 7L3 9.5V12.5L3.5 16L4.5 19L7 21.5L8 23.5L10.5 25L12 26.5L14 27.5L16 28L18 27.5L20.5 25.5L23 24L24.5 22L27 20L28.5 16.5L29 13.5V9.5L28 7L24 4.5H20.5Z" fill="#1ED760"/>
</svg>
