<svg width="32" height="32" viewBox="0 0 32 32" fill="none" xmlns="http://www.w3.org/2000/svg">
<path d="M29.3334 5H2.66675C2.12008 5 1.66675 4.54667 1.66675 4C1.66675 3.45333 2.12008 3 2.66675 3H29.3334C29.8801 3 30.3334 3.45333 30.3334 4C30.3334 4.54667 29.8801 5 29.3334 5Z" fill="white" fill-opacity="0.6"/>
<path d="M14.6667 13H2.66675C2.12008 13 1.66675 12.5467 1.66675 12C1.66675 11.4533 2.12008 11 2.66675 11H14.6667C15.2134 11 15.6667 11.4533 15.6667 12C15.6667 12.5467 15.2134 13 14.6667 13Z" fill="white" fill-opacity="0.6"/>
<path d="M10.6667 21H2.66675C2.12008 21 1.66675 20.5467 1.66675 20C1.66675 19.4533 2.12008 19 2.66675 19H10.6667C11.2134 19 11.6667 19.4533 11.6667 20C11.6667 20.5467 11.2134 21 10.6667 21Z" fill="white" fill-opacity="0.6"/>
<path d="M8.00008 29H2.66675C2.12008 29 1.66675 28.5467 1.66675 28C1.66675 27.4533 2.12008 27 2.66675 27H8.00008C8.54675 27 9.00008 27.4533 9.00008 28C9.00008 28.5467 8.54675 29 8.00008 29Z" fill="white" fill-opacity="0.6"/>
<path d="M15.7868 30.3336C13.6401 30.3336 11.8801 28.5869 11.8801 26.4269C11.8801 24.2803 13.6268 22.5203 15.7868 22.5203C17.9468 22.5203 19.6935 24.2669 19.6935 26.4269C19.6935 28.5869 17.9468 30.3336 15.7868 30.3336ZM15.7868 24.5336C14.7335 24.5336 13.8801 25.3869 13.8801 26.4403C13.8801 27.4936 14.7335 28.3469 15.7868 28.3469C16.8401 28.3469 17.6935 27.4936 17.6935 26.4403C17.6935 25.3869 16.8401 24.5336 15.7868 24.5336Z" fill="white" fill-opacity="0.6"/>
<path d="M18.6934 27.4268C18.1467 27.4268 17.6934 26.9734 17.6934 26.4268V14.7334C17.6934 13.1201 18.6534 11.8535 20.2134 11.4401L26.0134 9.85346C27.28 9.50679 28.3734 9.6401 29.1467 10.2401C29.92 10.8401 30.32 11.8134 30.32 13.1601V24.5068C30.32 25.0534 29.8667 25.5068 29.32 25.5068C28.7734 25.5068 28.32 25.0534 28.32 24.5068V13.1601C28.32 12.4934 28.1867 12.0268 27.9334 11.8401C27.68 11.6401 27.16 11.6267 26.5334 11.8001L20.7334 13.3867C20.3467 13.4934 19.6934 13.8134 19.6934 14.7601V26.4535C19.6934 26.9868 19.24 27.4268 18.6934 27.4268Z" fill="white" fill-opacity="0.6"/>
<path d="M26.4269 28.4C24.2803 28.4 22.5203 26.6533 22.5203 24.4933C22.5203 22.3467 24.2669 20.5867 26.4269 20.5867C28.5869 20.5867 30.3336 22.3333 30.3336 24.4933C30.3336 26.6533 28.5869 28.4 26.4269 28.4ZM26.4269 22.6C25.3736 22.6 24.5203 23.4533 24.5203 24.5067C24.5203 25.56 25.3736 26.4133 26.4269 26.4133C27.4803 26.4133 28.3336 25.56 28.3336 24.5067C28.3336 23.4533 27.4803 22.6 26.4269 22.6Z" fill="white" fill-opacity="0.6"/>
<path d="M18.6936 19.1334C18.2536 19.1334 17.8536 18.8401 17.7336 18.4001C17.587 17.8668 17.907 17.3202 18.4403 17.1735L29.0803 14.2668C29.6136 14.1202 30.1603 14.4401 30.307 14.9735C30.4536 15.5068 30.1336 16.0535 29.6003 16.2002L18.9603 19.1068C18.867 19.1202 18.7736 19.1334 18.6936 19.1334Z" fill="white" fill-opacity="0.6"/>
</svg>
