<svg width="24" height="20" viewBox="0 0 24 20" fill="none" xmlns="http://www.w3.org/2000/svg">
<path fill-rule="evenodd" clip-rule="evenodd" d="M23.1923 1.45992C23.5458 1.1771 23.6032 0.661226 23.3203 0.307692C23.0375 -0.0458414 22.5216 -0.103161 22.1681 0.179666L18.5335 3.08738C16.7002 1.44099 14.3619 3.01821e-05 11.75 3.01821e-05C9.40989 3.01821e-05 7.29402 1.15753 5.57632 2.56395C3.84924 3.97804 2.43704 5.71505 1.48808 7.03691L1.40982 7.14575C0.838545 7.93954 0.368293 8.59296 0.368286 9.56393C0.368279 10.5349 0.838445 11.1882 1.40961 11.9819L1.48783 12.0907C2.08495 12.9224 2.86272 13.9147 3.78432 14.8867L0.307692 17.668C-0.0458414 17.9508 -0.103161 18.4667 0.179666 18.8202C0.462493 19.1738 0.978365 19.2311 1.3319 18.9482L23.1923 1.45992ZM11.75 1.63956C13.6931 1.63956 15.5781 2.68809 17.234 4.12696L14.3739 6.41503C13.6635 5.82259 12.7483 5.46513 11.75 5.46513C9.48628 5.46513 7.65117 7.30024 7.65117 9.56396C7.65117 10.2366 7.81369 10.8724 8.10138 11.433L5.06946 13.8586C4.17208 12.9245 3.40806 11.9541 2.81971 11.1345C2.13789 10.1848 2.00781 9.95582 2.00782 9.56394C2.00782 9.17207 2.13795 8.94304 2.81994 7.99305C3.72635 6.73047 5.04266 5.11989 6.61499 3.8325C8.1967 2.53743 9.95114 1.63956 11.75 1.63956ZM11.75 7.10466C12.2268 7.10466 12.6718 7.23998 13.0489 7.47506L9.4266 10.3729C9.33852 10.1198 9.2907 9.84772 9.2907 9.56396C9.2907 8.20573 10.3918 7.10466 11.75 7.10466Z" fill="#5B5B5B"/>
<path d="M20.9263 5.61899C20.6398 5.26843 20.1233 5.21649 19.7728 5.503C19.4222 5.7895 19.3703 6.30594 19.6568 6.6565C20.0399 7.12527 20.3828 7.57896 20.68 7.99297C21.362 8.94303 21.4922 9.17208 21.4922 9.56396C21.4922 9.95583 21.3621 10.1849 20.6801 11.1349C19.7737 12.3974 18.4573 14.008 16.885 15.2954C15.3033 16.5905 13.5489 17.4884 11.75 17.4884C10.2145 17.4884 8.70942 16.8348 7.30964 15.8294C6.94192 15.5652 6.42971 15.6492 6.16559 16.0169C5.90147 16.3847 5.98546 16.8969 6.35318 17.161C7.91022 18.2794 9.74713 19.1279 11.75 19.1279C14.0901 19.1279 16.206 17.9704 17.9237 16.564C19.6508 15.1499 21.063 13.4129 22.0119 12.091L22.0902 11.9822C22.6615 11.1884 23.1317 10.5349 23.1317 9.56395C23.1317 8.59297 22.6614 7.93951 22.0901 7.14567L22.0119 7.03682C21.6974 6.59883 21.3338 6.1176 20.9263 5.61899Z" fill="#5B5B5B"/>
<path d="M15.8488 9.56396C15.8488 9.11122 15.4818 8.74419 15.0291 8.74419C14.5763 8.74419 14.2093 9.11122 14.2093 9.56396C14.2093 10.9222 13.1082 12.0233 11.75 12.0233C11.2973 12.0233 10.9302 12.3903 10.9302 12.843C10.9302 13.2958 11.2973 13.6628 11.75 13.6628C14.0137 13.6628 15.8488 11.8277 15.8488 9.56396Z" fill="#5B5B5B"/>
</svg>
