<svg width="9" height="18" viewBox="0 0 9 18" fill="none" xmlns="http://www.w3.org/2000/svg">
<path d="M0.7475 17.3375C0.5575 17.3375 0.3675 17.2675 0.2175 17.1175C-0.0725 16.8275 -0.0725 16.3475 0.2175 16.0575L6.7375 9.5375C7.2175 9.0575 7.2175 8.2775 6.7375 7.7975L0.2175 1.2775C-0.0725 0.9875 -0.0725 0.5075 0.2175 0.2175C0.5075 -0.0725 0.987499 -0.0725 1.2775 0.2175L7.7975 6.7375C8.3075 7.2475 8.5975 7.9375 8.5975 8.6675C8.5975 9.3975 8.3175 10.0875 7.7975 10.5975L1.2775 17.1175C1.1275 17.2575 0.9375 17.3375 0.7475 17.3375Z" fill="white"/>
</svg>
